# xmcd CD database file
#
# Track frame offsets:
#	150
#	28822
#	46654
#	60524
#	75366
#	96856
#	112594
#	127847
#	143868
#	163337
#	179855
#	196156
#
# Disc length: 2864 seconds
#
# Revision: 0
# Processed by: cddbd v1.5.2PL0 Copyright (c) Steve Scherf et al.
# Submitted via: CDex 1.60beta1-cs1
#
DISCID=960b2e0c
DTITLE=Ewan Cloonan - The Dancing Gate
DYEAR=2008
DGENRE=Country
TTITLE0=The Dancing Gate
TTITLE1=Try Everything Twice
TTITLE2=My Favourite Night In
TTITLE3=Your Happiness
TTITLE4=All the Time
TTITLE5=So Pleased
TTITLE6=The Arborist
TTITLE7=Massa Massa
TTITLE8=Dont Wait Up
TTITLE9=Sunday morning Regrets
TTITLE10=Metaphoric
TTITLE11=Coming Home
EXTD=YEAR: 2008
EXTT0=
EXTT1=
EXTT2=
EXTT3=
EXTT4=
EXTT5=
EXTT6=
EXTT7=
EXTT8=
EXTT9=
EXTT10=
EXTT11=
PLAYORDER=
